<svg viewBox="0 0 29 29" xmlns="http://www.w3.org/2000/svg"><path d="M14.5 2.612c3.873 0 4.331.015 5.86.085 1.413.065 2.182.3 2.692.5.677.263 1.16.578 1.668 1.085.508.508.821.99 1.084 1.668.199.51.435 1.278.5 2.692.07 1.53.085 1.988.085 5.86 0 3.87-.015 4.33-.085 5.858-.065 1.414-.3 2.182-.5 2.693a4.507 4.507 0 0 1-1.084 1.667 4.47 4.47 0 0 1-1.668 1.084c-.51.199-1.279.435-2.692.5-1.53.07-1.987.085-5.86.085-3.871 0-4.33-.015-5.859-.085-1.413-.065-2.181-.3-2.692-.5A4.507 4.507 0 0 1 4.28 24.72a4.484 4.484 0 0 1-1.084-1.667c-.198-.511-.435-1.28-.5-2.693-.07-1.53-.085-1.988-.085-5.859 0-3.87.015-4.33.085-5.859.065-1.414.3-2.182.5-2.692A4.507 4.507 0 0 1 4.28 4.282c.506-.507.99-.821 1.668-1.085.51-.198 1.279-.435 2.692-.5 1.529-.07 1.988-.085 5.86-.085zM14.5 0c-3.937 0-4.431.017-5.978.087-1.544.07-2.597.316-3.52.674a7.105 7.105 0 0 0-2.569 1.672 7.108 7.108 0 0 0-1.672 2.57c-.358.922-.604 1.975-.674 3.52C.017 10.067 0 10.562 0 14.5s.017 4.432.087 5.978c.07 1.543.316 2.597.674 3.52.37.953.867 1.762 1.672 2.568a7.1 7.1 0 0 0 2.569 1.672c.922.358 1.976.603 3.52.674 1.547.071 2.04.088 5.979.088 3.937 0 4.431-.017 5.978-.087 1.543-.07 2.597-.316 3.52-.674a7.106 7.106 0 0 0 2.568-1.672 7.097 7.097 0 0 0 1.672-2.568c.358-.922.604-1.977.674-3.52.07-1.546.087-2.04.087-5.978 0-3.938-.017-4.431-.087-5.978-.07-1.543-.316-2.597-.674-3.52a7.103 7.103 0 0 0-1.672-2.567A7.11 7.11 0 0 0 23.998.76c-.922-.358-1.976-.604-3.52-.674C18.933.017 18.439 0 14.502 0zm0 7.054a7.446 7.446 0 1 0 0 14.893 7.446 7.446 0 0 0 0-14.893zm0 12.28a4.834 4.834 0 1 1 0-9.668 4.834 4.834 0 0 1 0 9.668zm9.481-12.575a1.74 1.74 0 1 1-3.48 0 1.74 1.74 0 0 1 3.48 0z"/></svg>