<svg viewBox="0 0 68 68" fill="currentColor" xmlns="http://www.w3.org/2000/svg"><path d="M66 33.7C66 15.9 51.5 1.5 33.7 1.5 15.9 1.5 1.5 15.9 1.5 33.7 1.5 51.5 15.9 66 33.7 66 51.5 66 66 51.5 66 33.7zm-66 0C0 15.1 15.1 0 33.7 0s33.7 15.1 33.7 33.7-15.1 33.8-33.7 33.8S0 52.3 0 33.7z"/><path d="M41.8 18.3c-1.6 0-3 1.3-3 3 0 1.6 1.3 3 3 3 1.6 0 3-1.3 3-3-.1-1.6-1.4-3-3-3zm-10.4 2.2c-1 0-2.1.4-2.9 1.2L25 25l1.8 1.9 3.5-3.4c.3-.3.7-.4 1.1-.4.3 0 .5.1.7.2l2.4 1.3-7.7 7.2c-.1 0-.1.1-.2.1l1.5 1.5c.9-.5 1.9-.7 3-.7 3.6 0 6.6 2.9 6.6 6.6 0 1.1-.3 2.1-.7 3l1.5 1.5c.8-1.3 1.3-2.8 1.3-4.5 0-1.6-.4-3.1-1.2-4.4l3.8-.2-.9 8.9 2.6.3 1-10.4c0-.4-.1-.8-.4-1-.2-.3-.6-.4-.9-.4h-.1l-6.2.4 3.3-4.3c.9-1.1.5-2.7-.7-3.3L36.9 23l-3.5-2c-.7-.3-1.4-.5-2-.5zm-6.1 12.4c-1.7 1.6-2.8 3.8-2.8 6.4 0 4.7 3.9 8.6 8.6 8.6 2.5 0 4.8-1.1 6.4-2.8L36 43.6c-1.2 1.4-3 2.2-4.9 2.2-3.6 0-6.6-2.9-6.6-6.6 0-2 .9-3.7 2.2-4.9l-1.4-1.4z"/></svg>