<svg viewBox="0 0 50 55" xmlns="http://www.w3.org/2000/svg" fill="var(--color-white)"><path d="M50 24.105c0 8.474-3.745 14.632-8.94 18.329l-3.258-9.49 3.995.007-1.546-3.635-3.695-.003-2.953-8.592 2.995.003-1.236-2.907-2.759-.004-2.324-6.77 2.203.003-.825-1.939-2.046-.003L26.498.04c5.684.261 10.8 1.978 14.575 4.624C46.36 8.174 50 15.559 50 24.105zM9.354 29.277l3.712.003 3.035-8.585-3.084-.003 1.24-2.905 2.873.004 2.394-6.765-2.377-.003.825-1.935 2.236.003L23.41.04C13.678.512 4.82 5.335 1.506 14.906.483 17.856 0 20.986 0 24.105c0 8.246 3.528 14.354 8.503 18.077l3.278-9.27-3.975-.007 1.548-3.628zm7.434.01 16.082.02-2.312-8.593-11.38-.013-2.39 8.586zm10.64-20.183L24.978 0h-.042l-2.532 9.094 5.024.01zm-5.56 1.929L19.984 17.8l9.788.013-1.821-6.77-6.083-.01zm-6.09 21.885-3.234 11.63c1.085.486 2.202.881 3.34 1.178 1.496.392 4.31.617 7.329.685-.247 4.105-.559 8.393-.799 8.589h5.172c-.243-.196-.556-4.48-.799-8.585 3.061-.062 5.892-.29 7.329-.689a22.11 22.11 0 0 0 2.897-1.021l-3.167-11.767-18.067-.02z"/></svg>