<svg viewBox="0 0 37 29" xmlns="http://www.w3.org/2000/svg"><path d="M11.636 29c13.962 0 21.599-11.156 21.599-20.83 0-.317-.008-.632-.022-.946A15.159 15.159 0 0 0 37 3.433a15.61 15.61 0 0 1-4.36 1.152c1.567-.907 2.77-2.341 3.337-4.05a15.54 15.54 0 0 1-4.82 1.777A7.716 7.716 0 0 0 25.617 0c-4.193 0-7.592 3.279-7.592 7.32 0 .576.067 1.134.197 1.67-6.308-.306-11.904-3.22-15.647-7.65a7.1 7.1 0 0 0-1.028 3.68c0 2.54 1.34 4.781 3.377 6.093a7.742 7.742 0 0 1-3.438-.916c-.002.03-.002.061-.002.092 0 3.546 2.617 6.506 6.09 7.177a7.89 7.89 0 0 1-3.427.124c.966 2.909 3.768 5.026 7.092 5.084-2.599 1.964-5.871 3.134-9.427 3.134-.613 0-1.217-.034-1.812-.1A22.03 22.03 0 0 0 11.636 29z"/></svg>