<svg viewBox="0 0 239 239" fill="var(--color-white)" xmlns="http://www.w3.org/2000/svg"><path d="M25.279 142.115c-2.107 2.735-5.17 4.389-9.192 4.962-4.022.572-7.405-.127-10.214-2.099-2.809-1.972-4.532-4.899-5.043-8.779-.447-3.054-.064-5.725 1.213-8.143 1.213-2.417 3.128-4.008 5.617-4.898l2.043 3.753c-1.66.636-2.936 1.718-3.766 3.372-.894 1.59-1.15 3.308-.894 5.152.383 2.481 1.532 4.39 3.383 5.726 1.915 1.336 4.213 1.781 6.958 1.336 2.745-.382 4.852-1.527 6.32-3.308 1.468-1.782 1.979-3.944 1.596-6.425-.255-1.909-1.021-3.499-2.298-4.708-1.277-1.272-2.809-1.972-4.596-2.099l.83-4.199c2.617.128 4.915 1.145 6.83 3.117 1.851 1.972 3.064 4.39 3.447 7.443.638 3.754-.128 7.062-2.234 9.797zm-2.873-31.044 1.405-11.832 4.149.509-1.979 16.285L0 112.852l.51-4.453 21.896 2.672zM29.62 94.85 4.532 87.28l1.277-4.263 25.087 7.57-1.276 4.262zm1.213-14.187c-3.384.89-6.767.382-10.342-1.59s-5.873-4.58-6.83-7.825c-1.021-3.308-.575-6.616 1.277-10.05 1.468-2.672 3.447-4.581 5.936-5.726 2.426-1.145 4.916-1.336 7.469-.573l-.638 4.263c-1.724-.51-3.384-.382-5.043.381-1.66.7-2.937 1.909-3.83 3.626-1.213 2.227-1.469 4.453-.767 6.616.703 2.163 2.299 3.944 4.724 5.28 2.426 1.336 4.788 1.718 7.022 1.209 2.234-.573 3.958-1.972 5.235-4.135.893-1.654 1.276-3.372 1.021-5.153-.255-1.781-1.021-3.244-2.362-4.453l3.256-2.799c1.979 1.718 3.192 3.88 3.51 6.616.32 2.672-.255 5.344-1.723 8.016-2.043 3.244-4.596 5.407-7.915 6.297zm27.832-31.934-13.789-2.545.383 6.17 4.852 4.836-3.192 3.18-18.512-18.575 3.192-3.18 9.256 9.287-1.15-17.303 3.895-3.817.957 14.822 18.002 3.244-3.894 3.88zM78.9 7.316l4.086-1.718L93.2 29.708l-4.086 1.718-4.277-10.115-11.681 4.898 4.276 10.115-4.149 1.718-10.214-24.11 4.15-1.718 4.277 10.115 11.682-4.899L78.9 7.316zm23.875 16.349 13.597-1.845.575 4.135-18.066 2.417-3.51-25.891L112.924.127l.575 4.135-13.087 1.781.958 6.87 11.107-1.526.511 3.944-11.108 1.527.894 6.807zm34.024 4.198-3.447-10.114-6.192-.764-1.213 9.542-4.468-.572L124.671 0l11.043 1.336c2.617.318 4.596 1.336 6.001 3.053 1.404 1.718 1.915 3.754 1.659 6.235-.446 3.435-2.489 5.916-5.617 6.87l4.022 10.942-4.98-.573zm-8.107-23.156-1.021 8.143 6.256.764c2.617.318 4.596-1.146 4.915-3.563.319-2.417-1.213-4.262-3.894-4.644l-6.256-.7zm23.428 23.029 12.767 5.089-1.532 3.88-16.916-6.743 9.703-24.3 16.469 6.552-1.532 3.88-12.256-4.898-2.554 6.425 10.405 4.135-1.468 3.69-10.405-4.135-2.681 6.425zm55.345 9.988-2.809 3.117-6.447-5.726-14.682 16.413-3.383-2.99 14.682-16.413-6.448-5.725 2.809-3.117 16.278 14.44zm-11.49 21.756c.83-3.372 2.936-6.107 6.32-8.334 3.447-2.226 6.83-2.926 10.213-2.29 3.447.7 6.192 2.672 8.299 5.98 2.106 3.308 2.809 6.616 1.979 9.987-.766 3.372-2.873 6.107-6.32 8.334-3.447 2.226-6.83 2.926-10.214 2.29-3.383-.7-6.128-2.672-8.234-5.98-2.171-3.308-2.809-6.616-2.043-9.987zm22.342 4.135c.575-2.163.192-4.326-1.149-6.425-1.34-2.1-3.191-3.372-5.426-3.754-2.234-.381-4.532.191-6.894 1.654-2.362 1.463-3.766 3.372-4.405 5.598-.574 2.163-.191 4.39 1.149 6.489 1.341 2.1 3.192 3.308 5.426 3.69 2.235.381 4.533-.191 6.895-1.654 2.362-1.527 3.83-3.372 4.404-5.598zm19.087 34.097c.702 3.944.064 7.252-1.851 10.051-1.915 2.799-4.852 4.58-8.746 5.217-3.894.636-7.213 0-10.022-2.036s-4.532-5.026-5.234-9.033l-1.532-8.843 25.853-4.516 1.532 9.16zm-21.832 3.372c.447 2.608 1.66 4.58 3.511 5.916 1.915 1.336 4.213 1.781 6.831 1.336 2.617-.446 4.596-1.654 5.936-3.563 1.341-1.845 1.788-4.135 1.341-6.743l-.766-4.326-17.555 3.054.702 4.326zm1.341 21.374c2.809-2.036 6.192-2.799 10.214-2.29 4.021.509 7.149 2.099 9.256 4.835 2.17 2.735 3 5.979 2.489 9.86-.51 3.88-2.106 6.807-4.915 8.906-2.745 2.099-6.128 2.863-10.214 2.354-4.021-.509-7.149-2.1-9.32-4.835-2.17-2.672-2.936-5.98-2.425-9.86.51-3.944 2.106-6.871 4.915-8.97zm14.363 17.494c1.851-1.272 3-3.181 3.319-5.662.32-2.481-.255-4.644-1.723-6.361-1.468-1.718-3.575-2.799-6.32-3.181-2.745-.382-5.043.127-6.958 1.4-1.851 1.272-3 3.244-3.319 5.725-.32 2.481.255 4.58 1.723 6.298 1.468 1.717 3.575 2.799 6.384 3.18 2.745.382 5.043-.063 6.894-1.399zm-5.554 35.37-1.851 4.007-23.811-10.941 2.171-4.708 23.108-2.926-17.938-8.206 1.852-4.072 23.81 10.942-2.17 4.708-23.045 2.926 17.874 8.27zm-40.663 11.26 5.235 2.035 7.724-8.778-2.745-4.899 3.064-3.499 13.341 24.556-3.383 3.88-26.364-9.733 3.128-3.562zm15.001-3.054-5.745 6.616 12.129 4.771-6.384-11.387zm-19.789 39.441-2.425-3.435 7.022-4.962-12.768-17.876 3.639-2.608 12.767 17.876 7.022-5.026 2.426 3.435-17.683 12.596zm-21.704-14.059-12.831 4.899-1.532-3.881 17.044-6.552 9.448 24.428-16.533 6.361-1.532-3.88 12.32-4.708-2.49-6.425-10.469 4.008-1.404-3.69 10.469-4.008-2.49-6.552zM111.074 239l-.064-4.199 8.618-.191-.447-21.947 4.468-.063.447 21.947 8.618-.191.064 4.199-21.704.445zm-6.32-23.728c1.66 2.99 2.043 6.488 1.021 10.369-1.021 3.944-3 6.807-5.936 8.588-3 1.781-6.32 2.226-10.15 1.209-3.83-.955-6.511-2.99-8.235-5.98-1.723-2.99-2.107-6.425-1.085-10.369 1.021-3.944 3-6.807 5.936-8.588 2.937-1.782 6.32-2.163 10.15-1.209 3.83 1.018 6.575 2.99 8.299 5.98zm-19.215 12.023c1.086 2.036 2.81 3.372 5.235 3.944 2.426.636 4.66.318 6.575-.954s3.256-3.181 3.958-5.853c.702-2.672.511-5.025-.575-7.061-1.085-2.036-2.808-3.372-5.298-4.008-2.49-.636-4.596-.318-6.511.955-1.915 1.272-3.256 3.18-3.958 5.916-.702 2.735-.51 5.089.575 7.061zM58.09 221.76c-3.383-2.099-5.49-4.771-6.32-8.079-.83-3.308-.19-6.679 1.852-9.987 2.043-3.308 4.788-5.407 8.17-6.171 3.384-.763 6.767-.063 10.278 2.1l7.66 4.707-13.788 22.265-7.852-4.835zm11.938-18.511c-2.235-1.4-4.533-1.845-6.767-1.336-2.298.509-4.086 1.972-5.554 4.262-1.404 2.226-1.85 4.517-1.276 6.743.51 2.227 1.915 4.071 4.213 5.471l3.766 2.29 9.384-15.14-3.766-2.29zm-23.811-25.701-2.554 5.026 8.044 8.524 5.17-2.226 3.192 3.371-25.917 10.687-3.511-3.753 12.384-25.064 3.192 3.435zm1.532 15.204-6-6.425-6.001 11.578 12-5.153zM10.15 168.833l19.916-.7 7.47-4.262 2.233 3.881-7.468 4.262-10.789 16.73-2.617-4.516 8.044-11.705-14.172.89-2.617-4.58z"/></svg>