<svg viewBox="0 0 30 30" xmlns="http://www.w3.org/2000/svg"><path d="M15 0C6.716 0 0 6.757 0 15.091 0 22.623 5.484 28.867 12.656 30V19.454h-3.81v-4.363h3.81v-3.325c0-3.784 2.24-5.873 5.666-5.873 1.641 0 3.358.295 3.358.295v3.714h-1.892l-.086.001c-1.593.032-2.217.938-2.336 1.964v.003l-.006.054v.002l-.005.045v.01a1.449 1.449 0 0 0-.004.04v.015l-.003.034v.022c-.002.017-.002.034-.003.052v.004l-.001.048v2.895h4.159l-.664 4.363h-3.495V30C24.515 28.869 30 22.625 30 15.09 30 6.757 23.284 0 15 0z"/></svg>